<?xml version="1.0" encoding="iso-8859-1"?>
<!-- Uploaded to: SVG Repo, www.svgrepo.com, Generator: SVG Repo Mixer Tools -->
<svg height="800px" width="800px" version="1.1" id="Layer_1" xmlns="http://www.w3.org/2000/svg" xmlns:xlink="http://www.w3.org/1999/xlink" 
	 viewBox="0 0 504.122 504.122" xml:space="preserve">
<path style="fill:#EA186D;" d="M484.171,119.576L309.28,37.128c-1.796-0.843-3.828-0.843-5.664,0L128.74,119.576
	c-2.812,1.323-4.372,4.427-3.663,7.491c0.662,3.033,3.379,5.199,6.475,5.199h22.087h9.736V326.96
	c0,7.908,6.396,14.289,14.297,14.289h93.633V229.837h70.309v111.419h93.617c7.893,0,14.312-6.388,14.312-14.289V132.266h9.744
	h22.063c3.096,0,5.805-2.166,6.475-5.199C488.527,124.003,487.014,120.9,484.171,119.576z"/>
<path style="fill:#BA1165;" d="M484.171,119.576L309.28,37.128c-1.796-0.843-3.828-0.843-5.664,0L174.474,98.001l275.07,216.033
	V132.266h9.744h22.063c3.096,0,5.805-2.166,6.475-5.199C488.527,124.003,487.014,120.9,484.171,119.576z"/>
<path style="fill:#00B7FF;" d="M494.442,257.619c-9.988-6.695-23.521-4.017-30.216,5.986l-34.202,51.121l-27.845,13.706H258.166
	c28.215-12.816,89.474-15.187,89.474-30.633c0-26.002,1.371-32.217-32.217-32.217H203.122c-0.291,0-0.567,0.079-0.859,0.079
	c-8.539-0.213-17.14,2.844-23.639,9.358L99.21,354.435c-0.315,0.323-0.528,0.693-0.835,1.032h-0.197l-87.166,87.15
	C4.813,443.389,0,448.619,0,455.039c0,6.955,5.632,12.587,12.572,12.587H197.6c6.94,0,12.579-5.632,12.579-12.587
	c0-4.12-2.024-7.767-5.096-10.059l23.04-35.541h119.532c1.04,0,2.017-0.228,3.033-0.307c5.569,0.709,11.382-0.213,16.644-3.167
	l82.44-46.222c5.797-3.261,9.823-8.365,11.981-14.139l38.684-57.785C507.132,277.831,504.454,264.299,494.442,257.619z"/>
<path style="fill:#008CFF;" d="M461.753,345.605l38.684-57.785c6.695-9.988,4.017-23.52-5.994-30.2
	c-9.988-6.695-23.521-4.017-30.216,5.986l-34.202,51.121l-27.845,13.706H258.166c28.215-12.816,89.474-15.187,89.474-30.633
	c0-26.002,1.371-32.217-32.217-32.217H203.122c-0.291,0-0.567,0.079-0.859,0.079c-8.539-0.213-17.14,2.844-23.639,9.358
	l-14.872,14.88l119.54,119.54h64.354c1.04,0,2.017-0.228,3.033-0.307c5.569,0.709,11.382-0.213,16.644-3.167l82.448-46.222
	C455.57,356.483,459.595,351.37,461.753,345.605z"/>
</svg>